<?xml version="1.0" standalone="no"?>
<!DOCTYPE svg PUBLIC "-//W3C//DTD SVG 20010904//EN"
 "http://www.w3.org/TR/2001/REC-SVG-20010904/DTD/svg10.dtd">
<svg version="1.0" xmlns="http://www.w3.org/2000/svg"
 width="16.000000pt" height="16.000000pt" viewBox="0 0 16.000000 16.000000"
 preserveAspectRatio="xMidYMid meet">
<metadata>
Created by potrace 1.11, written by Peter Selinger 2001-2013
</metadata>
<g transform="translate(0.000000,16.000000) scale(0.003226,-0.003226)"
fill="#000000" stroke="none">
<path d="M2403 4945 c-18 -8 -33 -11 -33 -7 0 4 -4 2 -8 -3 -7 -11 -91 -40
-104 -37 -5 1 -8 -3 -8 -10 0 -6 -3 -8 -7 -5 -3 4 -12 2 -20 -4 -7 -6 -13 -9
-13 -5 0 4 -13 0 -30 -9 -16 -9 -30 -13 -30 -10 0 3 -10 0 -22 -7 -13 -6 -32
-13 -43 -15 -11 -2 -24 -8 -29 -13 -6 -6 -20 -10 -33 -10 -13 0 -23 -4 -23 -9
0 -5 -8 -8 -17 -7 -10 2 -20 0 -23 -3 -7 -9 -105 -41 -124 -41 -9 0 -16 -4
-16 -9 0 -5 -15 -12 -32 -15 -18 -3 -46 -13 -62 -21 -15 -8 -32 -13 -36 -10
-5 3 -11 1 -15 -5 -4 -6 -11 -8 -16 -5 -5 4 -9 2 -9 -2 0 -5 -21 -15 -47 -23
-57 -16 -51 -14 -86 -28 -15 -7 -40 -15 -55 -18 -15 -4 -37 -13 -49 -20 -13
-8 -23 -12 -23 -10 0 2 -24 -5 -52 -16 -29 -10 -57 -20 -63 -22 -48 -12 -125
-41 -125 -48 0 -4 -7 -5 -15 -2 -8 4 -15 1 -15 -6 0 -6 -4 -9 -9 -6 -5 3 -26
-2 -47 -11 -39 -16 -45 -19 -74 -26 -8 -2 -28 -9 -43 -15 -16 -7 -30 -12 -32
-12 -2 0 -16 -5 -32 -12 -15 -6 -32 -12 -38 -13 -38 -9 -116 -39 -121 -46 -3
-5 -10 -7 -15 -3 -5 3 -15 1 -22 -4 -7 -5 -24 -12 -39 -16 -15 -3 -40 -11 -55
-18 -15 -6 -30 -12 -33 -13 -3 -1 -18 -7 -33 -13 -16 -7 -35 -12 -43 -12 -8 0
-14 -5 -14 -11 0 -5 -4 -8 -8 -5 -14 9 -327 -109 -325 -122 2 -6 5 -35 8 -64
10 -89 13 -106 20 -117 3 -6 1 -11 -5 -11 -6 0 -8 -5 -5 -10 7 -11 10 -28 19
-99 3 -24 8 -46 11 -49 2 -3 0 -14 -6 -25 -7 -11 -7 -17 -1 -13 8 5 23 -98 26
-186 1 -9 4 -19 7 -22 4 -4 5 -20 3 -36 -2 -17 0 -30 4 -30 4 0 7 -21 8 -48 0
-26 4 -67 8 -92 7 -40 18 -148 20 -192 0 -9 3 -15 6 -13 3 2 6 -15 7 -38 0
-23 3 -62 7 -87 11 -82 15 -115 21 -174 3 -33 8 -75 12 -95 3 -20 6 -47 7 -61
1 -14 5 -31 10 -39 7 -10 6 -12 -4 -6 -10 6 -11 4 -4 -6 4 -8 9 -23 10 -34 3
-42 14 -141 19 -170 3 -16 7 -55 9 -85 3 -30 6 -55 7 -55 1 0 3 -16 4 -35 2
-19 4 -35 5 -35 1 0 3 -19 4 -41 2 -23 6 -47 10 -53 4 -6 1 -11 -6 -11 -8 0
-9 -3 -2 -8 6 -4 11 -26 12 -48 2 -23 5 -52 8 -65 3 -13 6 -43 7 -66 1 -24 4
-43 7 -43 3 0 5 -18 5 -40 0 -22 2 -40 5 -40 3 0 5 -12 6 -27 0 -16 5 -59 9
-98 12 -106 13 -118 14 -148 1 -20 5 -26 14 -21 8 5 8 2 -2 -9 -7 -9 -10 -17
-5 -17 5 0 9 -15 10 -33 1 -43 12 -147 17 -172 3 -11 8 -52 12 -91 4 -39 10
-77 15 -84 9 -14 52 -40 103 -61 15 -6 27 -15 27 -20 0 -5 3 -8 8 -7 9 3 180
-90 187 -103 4 -5 15 -9 26 -9 10 0 19 -3 19 -7 0 -5 25 -19 55 -33 30 -14 55
-28 55 -32 0 -5 5 -8 10 -8 6 0 22 -8 37 -17 14 -10 33 -18 41 -19 8 -2 18 -6
21 -11 3 -5 29 -19 56 -33 28 -14 52 -27 55 -30 3 -4 23 -15 45 -27 58 -30
118 -64 131 -74 6 -5 14 -6 17 -2 4 3 7 2 7 -4 0 -10 26 -21 41 -19 3 1 13 -6
22 -14 32 -29 47 -41 47 -36 0 3 32 -13 70 -35 39 -22 82 -44 95 -49 14 -5 25
-15 25 -21 0 -7 3 -10 6 -6 3 3 20 -2 37 -12 39 -21 141 -77 182 -100 17 -9
33 -20 37 -26 4 -5 8 -6 8 -2 0 5 7 1 16 -7 8 -9 19 -14 24 -11 5 3 11 1 15
-5 3 -6 25 -20 48 -31 23 -12 45 -27 49 -33 4 -6 8 -7 8 -2 0 4 10 2 23 -6 23
-15 89 -53 192 -108 33 -18 69 -39 80 -46 29 -20 48 -17 105 16 28 16 55 30
60 30 6 0 10 4 10 8 0 4 20 16 45 26 25 11 45 22 45 25 0 4 16 13 35 20 19 7
35 17 35 22 0 5 3 8 8 7 8 -2 74 31 82 41 3 4 20 13 38 20 17 8 32 18 32 24 0
6 3 7 6 4 4 -4 19 2 34 13 16 11 31 20 35 20 4 0 33 15 65 34 32 19 61 32 64
29 3 -4 6 -1 6 6 0 7 14 17 30 22 17 6 30 15 30 21 0 5 4 7 9 3 5 -3 15 1 23
8 7 7 15 13 18 13 10 0 105 58 112 69 4 5 8 7 8 3 0 -8 132 61 141 74 3 5 16
11 29 13 13 2 26 9 29 13 7 11 82 50 95 50 5 0 13 7 18 16 5 9 18 16 28 16 10
0 24 8 29 17 6 10 11 14 11 10 0 -9 56 20 77 40 7 6 33 19 58 28 24 10 42 21
39 26 -3 5 1 9 9 9 20 0 97 41 97 52 0 4 9 8 20 8 11 0 20 5 20 11 0 5 4 8 9
4 5 -3 13 0 16 6 4 6 26 19 49 30 68 32 101 52 104 61 2 4 7 6 12 3 4 -2 18 4
30 15 13 11 29 20 35 20 7 0 18 7 25 15 7 9 15 13 18 11 3 -3 17 3 32 14 16
11 33 20 39 20 6 0 12 3 12 8 5 30 22 173 22 190 0 6 3 12 6 12 3 0 6 25 5 55
0 30 3 55 6 55 6 0 8 27 13 137 1 29 5 53 8 53 3 0 6 6 6 13 0 13 14 149 17
169 1 7 5 19 9 26 5 7 3 12 -3 12 -6 0 -9 4 -6 8 6 11 15 60 22 121 3 25 6 60
8 76 2 17 4 47 5 68 1 27 5 36 14 31 9 -5 9 -4 0 6 -7 7 -9 21 -4 34 4 11 6
31 5 43 0 13 2 23 5 23 4 0 6 18 5 40 -1 22 3 43 7 46 5 3 5 14 -1 24 -6 11
-6 21 -1 24 5 3 12 41 16 83 4 43 9 87 12 98 2 11 5 41 6 67 1 27 5 48 8 48 3
0 5 20 4 45 0 25 2 45 5 45 3 0 6 10 7 23 0 12 4 54 8 92 5 39 9 85 9 102 1
18 4 33 7 33 4 0 5 14 4 30 -1 17 2 30 9 30 7 0 7 3 1 8 -13 9 -18 35 -5 27 6
-3 9 4 9 17 -1 13 2 46 5 73 3 28 8 70 11 95 3 25 8 68 11 95 4 28 8 64 9 80
2 17 4 30 5 30 1 0 3 18 5 40 2 22 6 58 9 80 3 22 8 65 11 95 10 89 14 115 15
115 1 0 3 16 5 35 6 75 13 136 19 160 3 14 8 55 10 91 l4 66 -54 13 c-30 7
-54 17 -54 23 0 5 -7 7 -15 4 -8 -4 -17 -2 -20 3 -4 6 -12 10 -20 10 -8 0 -24
4 -37 9 -13 5 -26 9 -31 10 -4 0 -21 8 -37 16 -16 8 -32 15 -35 14 -3 0 -41
11 -85 26 -44 15 -83 27 -87 27 -5 0 -17 5 -28 11 -11 6 -26 10 -32 9 -7 -2
-13 2 -13 8 0 5 -3 9 -7 8 -5 0 -15 1 -23 4 -22 8 -104 33 -110 33 -3 1 -14 6
-25 11 -11 6 -33 15 -50 19 -36 10 -36 10 -57 19 -9 4 -22 9 -30 10 -7 2 -22
6 -33 10 -11 5 -38 15 -60 23 -22 8 -47 16 -55 18 -8 2 -35 11 -60 20 -25 9
-52 18 -60 20 -8 2 -45 15 -82 28 -37 13 -70 22 -73 19 -3 -3 -5 -1 -5 5 0 9
-20 16 -84 29 -11 3 -24 8 -30 13 -8 7 -105 39 -136 46 -3 0 -16 7 -29 14 -13
7 -21 9 -17 3 3 -5 -12 -1 -33 10 -22 10 -48 20 -60 21 -12 1 -21 4 -21 7 0 4
-24 12 -52 20 -29 7 -60 17 -68 21 -8 4 -44 18 -80 29 -36 12 -74 25 -85 30
-18 7 -135 47 -160 54 -5 2 -17 6 -25 9 -31 12 -85 27 -94 26 -5 0 -12 5 -16
11 -11 18 -109 21 -147 5z"/>
<path d="M4950 4833 c-3 -1234 0 -4827 4 -4831 4 -3 6 1111 6 2476 0 1365 -2
2482 -5 2482 -3 0 -5 -57 -5 -127z"/>
</g>
</svg>
